<svg xmlns="http://www.w3.org/2000/svg" viewBox="0 0 825 992.41"><path d="M207.92,474.83c4.23-36.59,18.62-57.07,45.72-78.07,38.78-28.44,87.22-12.35,87.22-12.35V289a200.34,200.34,0,0,1,35.2,2.18V414s-48.42-16.09-87.2,12.36c-27.09,21-41.5,41.49-45.72,78.07-.13,19.87,3.44,45.84,19.89,68.3q-6.09-3.27-12.44-7.45C214.35,539.86,207.74,501.76,207.92,474.83ZM576.07,112.51C549.39,82,539.3,51.21,535.66,29.58h33.55s-6.69,56.72,42.08,112.5l.67.75A195.64,195.64,0,0,1,576.07,112.51ZM737.72,199V319.32s-42.82-1.75-74.51-10.16c-44.25-11.76-72.69-29.81-72.69-29.81s-19.64-12.86-21.23-13.76V514.11c0,13.84-3.63,48.39-14.71,77.22-14.45,37.7-36.76,62.45-40.86,67.51,0,0-27.13,33.45-75,56-43.15,20.33-81,19.81-92.35,20.33,0,0-65.48,2.7-124.41-37.25a249.91,249.91,0,0,1-35.53-29.8l.3.22c58.94,40,124.41,37.25,124.41,37.25,11.33-.51,49.21,0,92.35-20.32,47.82-22.53,75-56,75-56,4.06-5.06,26.47-29.81,40.87-67.53,11-28.81,14.7-63.38,14.7-77.22V236c1.59.91,21.22,13.78,21.22,13.78s28.45,18.1,72.72,29.81c31.7,8.41,74.51,10.16,74.51,10.16V195.47c14.65,3.43,27.13,4.36,35.23,3.5Z" fill="#ee1d52"/><path d="M702.5,195.47v94.28S659.7,288,628,279.59c-44.25-11.77-72.7-29.81-72.7-29.81S535.66,236.91,534.07,236V484.55c0,13.84-3.63,48.41-14.71,77.22-14.45,37.72-36.76,62.47-40.86,67.53,0,0-27.15,33.45-75,56-43.13,20.32-81,19.81-92.35,20.32,0,0-65.47,2.71-124.41-37.25l-.29-.22a229.94,229.94,0,0,1-17.54-19.88c-18.81-23.92-30.34-52.22-33.24-60.29v-.07c-4.66-14-14.45-47.72-13.12-80.35,2.37-57.57,21.78-92.91,26.92-101.76a239.31,239.31,0,0,1,52.24-63.89,218,218,0,0,1,62.09-36.76A208.05,208.05,0,0,1,340.86,289v95.44s-48.44-16-87.21,12.35c-27.1,21-41.48,41.48-45.72,78.07-.17,26.93,6.43,65,42.65,90.44q6.33,4.18,12.44,7.44a96.94,96.94,0,0,0,22.79,22.13c35.38,23.37,65,25,102.94,9.82,25.28-10.14,44.31-33,53.13-58.35,5.55-15.82,5.47-31.74,5.47-48.21V29.58h88.23C539.23,51.21,549.32,82,576,112.51a196,196,0,0,0,35.9,30.32c3.88,4.19,23.73,24.91,49.22,37.63A192.16,192.16,0,0,0,702.5,195.47Z"/><path d="M100.56,558.65v.08l2.17,6.19C102.48,564.2,101.67,562,100.56,558.65Z" fill="#69c9d0"/><path d="M263.8,305.15a218,218,0,0,0-62.09,36.76,239.39,239.39,0,0,0-52.23,64c-5.13,8.82-24.54,44.19-26.91,101.76C121.23,540.3,131,574,135.69,588a.17.17,0,0,0,0,.1c2.94,8,14.42,36.29,33.23,60.29a231.57,231.57,0,0,0,17.54,19.89,244.88,244.88,0,0,1-52.76-49.47c-18.65-23.72-30.15-51.72-33.14-60a.49.49,0,0,1,0-.17v-.11c-4.68-14-14.5-47.71-13.14-80.39,2.37-57.57,21.78-92.91,26.91-101.76a239.27,239.27,0,0,1,52.24-64,218,218,0,0,1,62.08-36.76,212.93,212.93,0,0,1,43.8-12.87,217.58,217.58,0,0,1,68.48-1V289A208,208,0,0,0,263.8,305.15Z" fill="#69c9d0"/><path d="M535.66,29.58H447.43V498.11c0,16.47,0,32.35-5.48,48.22-8.91,25.32-27.86,48.19-53.13,58.33-37.92,15.25-67.57,13.55-102.93-9.82A96.88,96.88,0,0,1,263,572.78c30.14,16.08,57.11,15.8,90.52,2.39,25.25-10.15,44.23-33,53.11-58.35,5.56-15.83,5.49-31.75,5.49-48.21V0H534S532.61,11.64,535.66,29.58ZM702.5,169.4v26.07a191.64,191.64,0,0,1-41.32-15C635.7,167.75,615.85,147,612,142.84a138.58,138.58,0,0,0,14,8.07c31,15.47,61.5,20.08,76.54,18.51Z" fill="#69c9d0"/><path d="M540.19,927.91a33.15,33.15,0,0,1-1.47-9.89v-.24A35.82,35.82,0,0,0,540.19,927.91Zm72.92-10.13V918a33.85,33.85,0,0,1-1.47,9.89A36.55,36.55,0,0,0,613.11,917.78Z" fill="none"/><path d="M538.7,918a33.47,33.47,0,0,0,1.47,9.89,3.63,3.63,0,0,0,.21.66,37.16,37.16,0,0,0,35.53,26.18V992.4c-18.33,0-31.44.65-51.47-11.16-22.71-13.47-35.5-38.1-35.5-63.67,0-26.39,14.32-52.81,38.6-65.55,17.65-9.23,31-9.29,48.41-9.29v37.62a37.21,37.21,0,0,0-37.22,37.2v0Z" fill="#69c9d0"/><path d="M613.4,918a33.47,33.47,0,0,1-1.47,9.89,2.19,2.19,0,0,1-.2.66,37.2,37.2,0,0,1-35.53,26.18V992.4c18.31,0,31.44.65,51.4-11.16,22.77-13.47,35.6-38.1,35.6-63.67,0-26.39-14.33-52.81-38.6-65.55-17.65-9.23-31-9.29-48.4-9.29v37.62a37.21,37.21,0,0,1,37.2,37.22Z" fill="#ee1d52"/><path d="M0,808.6H137.8l-12.73,37.91H89v145.1H44.7V846.51H0Zm365.21,0v37.91h44.64v145.1h44.37V846.51h36.06L503,808.6ZM167.79,851.8a21.47,21.47,0,1,0-21.49-21.45h0a21.45,21.45,0,0,0,21.45,21.45h0ZM146.3,991.61h43.5V867H146.3Zm200-140.89H295.42l-43.86,43.85V808.75H208.35l-.14,182.86h43.63V944l13.58-12.37,42.35,60h46.64l-61.35-87.68Zm417.29,53.19,53.19-53.18H765.91l-43.86,43.85V808.75H678.84l-.2,182.86h43.64V944L736,931.59l42.35,60H825ZM651.74,917.54c0,41.32-34,74.83-75.83,74.83s-75.84-33.46-75.84-74.83,34-74.84,75.84-74.84,75.83,33.53,75.83,74.87Zm-38.63,0a37.21,37.21,0,1,0-37.22,37.2h0a37.21,37.21,0,0,0,37.2-37.17Z"/></svg>